{
  "accessors": [
    {
      "bufferView": 2,
      "componentType": 5126,
      "count": 9784,
      "max": [
        -0.033252403140068054,
        0.7546486854553223,
        0.14122197031974792
      ],
      "min": [
        -0.34111523628234863,
        0.1944214105606079,
        -0.3172411024570465
      ],
      "type": "VEC3"
    },
    {
      "bufferView": 2,
      "byteOffset": 117408,
      "componentType": 5126,
      "count": 9784,
      "max": [
        0.9994170665740967,
        0.9985103607177734,
        0.9999736547470093
      ],
      "min": [
        -0.999992311000824,
        -0.9995146989822388,
        -0.9998553991317749
      ],
      "type": "VEC3"
    },
    {
      "bufferView": 1,
      "componentType": 5126,
      "count": 9784,
      "max": [
        0.999725341796875,
        0.9999688267707825
      ],
      "min": [
        0.00779672572389245,
        0.011700987815856934
      ],
      "type": "VEC2"
    },
    {
      "bufferView": 1,
      "byteOffset": 78272,
      "componentType": 5126,
      "count": 9784,
      "max": [
        0.999725341796875,
        0.9999688267707825
      ],
      "min": [
        0.00779672572389245,
        0.011700987815856934
      ],
      "type": "VEC2"
    },
    {
      "bufferView": 1,
      "byteOffset": 156544,
      "componentType": 5126,
      "count": 9784,
      "max": [
        0.999725341796875,
        0.9999688267707825
      ],
      "min": [
        0.00779672572389245,
        0.011700987815856934
      ],
      "type": "VEC2"
    },
    {
      "bufferView": 1,
      "byteOffset": 234816,
      "componentType": 5126,
      "count": 9784,
      "max": [
        0.999725341796875,
        0.9999688267707825
      ],
      "min": [
        0.00779672572389245,
        0.011700987815856934
      ],
      "type": "VEC2"
    },
    {
      "bufferView": 1,
      "byteOffset": 313088,
      "componentType": 5126,
      "count": 9784,
      "max": [
        0.999725341796875,
        0.9999688267707825
      ],
      "min": [
        0.00779672572389245,
        0.011700987815856934
      ],
      "type": "VEC2"
    },
    {
      "bufferView": 0,
      "componentType": 5125,
      "count": 45783,
      "type": "SCALAR"
    }
  ],
  "asset": {
    "extras": {
      "author": "GoodOldWill (https://sketchfab.com/GoodOldWill)",
      "license": "CC-BY-NC-SA-4.0 (http://creativecommons.org/licenses/by-nc-sa/4.0/)",
      "source": "https://sketchfab.com/3d-models/wet-floor-sign-e81058722ae4433db03b3d1a7c9a4a21",
      "title": "Wet floor sign"
    },
    "generator": "Sketchfab-15.46.0",
    "version": "2.0"
  },
  "bufferViews": [
    {
      "buffer": 0,
      "byteLength": 183132,
      "name": "floatBufferViews",
      "target": 34963
    },
    {
      "buffer": 0,
      "byteLength": 391360,
      "byteOffset": 183132,
      "byteStride": 8,
      "name": "floatBufferViews",
      "target": 34962
    },
    {
      "buffer": 0,
      "byteLength": 234816,
      "byteOffset": 574492,
      "byteStride": 12,
      "name": "floatBufferViews",
      "target": 34962
    }
  ],
  "buffers": [
    {
      "byteLength": 809308,
      "uri": "scene.bin"
    }
  ],
  "extensionsUsed": [
    "KHR_materials_unlit"
  ],
  "images": [
    {
      "uri": "textures/material_0_baseColor.jpeg"
    }
  ],
  "materials": [
    {
      "extensions": {
        "KHR_materials_unlit": {}
      },
      "name": "material_0",
      "pbrMetallicRoughness": {
        "baseColorTexture": {
          "index": 0
        },
        "metallicFactor": 0.0
      }
    }
  ],
  "meshes": [
    {
      "name": "Object_0",
      "primitives": [
        {
          "attributes": {
            "NORMAL": 1,
            "POSITION": 0,
            "TEXCOORD_0": 2,
            "TEXCOORD_1": 3,
            "TEXCOORD_2": 4,
            "TEXCOORD_3": 5,
            "TEXCOORD_4": 6
          },
          "indices": 7,
          "material": 0,
          "mode": 4
        }
      ]
    }
  ],
  "nodes": [
    {
      "children": [
        1
      ],
      "matrix": [
        1.0,
        0.0,
        0.0,
        0.0,
        0.0,
        2.220446049250313e-16,
        -1.0,
        0.0,
        0.0,
        1.0,
        2.220446049250313e-16,
        0.0,
        0.0,
        0.0,
        0.0,
        1.0
      ],
      "name": "Sketchfab_model"
    },
    {
      "children": [
        2
      ],
      "name": "root"
    },
    {
      "children": [
        3
      ],
      "matrix": [
        1.0,
        0.0,
        0.0,
        0.0,
        0.0,
        2.220446049250313e-16,
        1.0,
        0.0,
        0.0,
        -1.0,
        2.220446049250313e-16,
        0.0,
        0.0,
        0.0,
        0.0,
        1.0
      ],
      "name": "GLTF_SceneRootNode"
    },
    {
      "children": [
        4
      ],
      "name": "_0"
    },
    {
      "mesh": 0,
      "name": "Object_4"
    }
  ],
  "samplers": [
    {
      "magFilter": 9729,
      "minFilter": 9987,
      "wrapS": 10497,
      "wrapT": 10497
    }
  ],
  "scene": 0,
  "scenes": [
    {
      "name": "Sketchfab_Scene",
      "nodes": [
        0
      ]
    }
  ],
  "textures": [
    {
      "sampler": 0,
      "source": 0
    }
  ]
}
