{
  "accessors": [
    {
      "bufferView": 2,
      "componentType": 5126,
      "count": 65532,
      "max": [
        2.513235092163086,
        1.0286320447921753,
        2.456331968307495
      ],
      "min": [
        -4.56537389755249,
        -0.8021119832992554,
        -1.4624329805374146
      ],
      "type": "VEC3"
    },
    {
      "bufferView": 2,
      "byteOffset": 786384,
      "componentType": 5126,
      "count": 65532,
      "max": [
        0.9999996423721313,
        0.9999988079071045,
        0.9997479915618896
      ],
      "min": [
        -0.9999986886978149,
        -0.9999428987503052,
        -0.9999986886978149
      ],
      "type": "VEC3"
    },
    {
      "bufferView": 1,
      "componentType": 5126,
      "count": 65532,
      "max": [
        0.999534010887146,
        0.999002993106842
      ],
      "min": [
        0.00038899999344721437,
        0.00034797191619873047
      ],
      "type": "VEC2"
    },
    {
      "bufferView": 1,
      "byteOffset": 524256,
      "componentType": 5126,
      "count": 65532,
      "max": [
        0.999534010887146,
        0.999002993106842
      ],
      "min": [
        0.00038899999344721437,
        0.00034797191619873047
      ],
      "type": "VEC2"
    },
    {
      "bufferView": 1,
      "byteOffset": 1048512,
      "componentType": 5126,
      "count": 65532,
      "max": [
        0.999534010887146,
        0.999002993106842
      ],
      "min": [
        0.00038899999344721437,
        0.00034797191619873047
      ],
      "type": "VEC2"
    },
    {
      "bufferView": 1,
      "byteOffset": 1572768,
      "componentType": 5126,
      "count": 65532,
      "max": [
        0.999534010887146,
        0.999002993106842
      ],
      "min": [
        0.00038899999344721437,
        0.00034797191619873047
      ],
      "type": "VEC2"
    },
    {
      "bufferView": 0,
      "componentType": 5125,
      "count": 73782,
      "type": "SCALAR"
    },
    {
      "bufferView": 2,
      "byteOffset": 1572768,
      "componentType": 5126,
      "count": 65533,
      "max": [
        2.52177095413208,
        1.0954949855804443,
        2.454292058944702
      ],
      "min": [
        -4.56007194519043,
        -0.805275022983551,
        -1.4112190008163452
      ],
      "type": "VEC3"
    },
    {
      "bufferView": 2,
      "byteOffset": 2359164,
      "componentType": 5126,
      "count": 65533,
      "max": [
        0.9999996423721313,
        1.0,
        0.9976074695587158
      ],
      "min": [
        -0.9999974966049194,
        -0.9985581040382385,
        -0.9999986886978149
      ],
      "type": "VEC3"
    },
    {
      "bufferView": 1,
      "byteOffset": 2097024,
      "componentType": 5126,
      "count": 65533,
      "max": [
        0.9390580058097839,
        0.5273250341415405
      ],
      "min": [
        0.47255200147628784,
        0.06077700853347778
      ],
      "type": "VEC2"
    },
    {
      "bufferView": 1,
      "byteOffset": 2621288,
      "componentType": 5126,
      "count": 65533,
      "max": [
        0.9390580058097839,
        0.5273250341415405
      ],
      "min": [
        0.47255200147628784,
        0.06077700853347778
      ],
      "type": "VEC2"
    },
    {
      "bufferView": 1,
      "byteOffset": 3145552,
      "componentType": 5126,
      "count": 65533,
      "max": [
        0.9390580058097839,
        0.5273250341415405
      ],
      "min": [
        0.47255200147628784,
        0.06077700853347778
      ],
      "type": "VEC2"
    },
    {
      "bufferView": 1,
      "byteOffset": 3669816,
      "componentType": 5126,
      "count": 65533,
      "max": [
        0.9390580058097839,
        0.5273250341415405
      ],
      "min": [
        0.47255200147628784,
        0.06077700853347778
      ],
      "type": "VEC2"
    },
    {
      "bufferView": 0,
      "byteOffset": 295128,
      "componentType": 5125,
      "count": 91200,
      "type": "SCALAR"
    },
    {
      "bufferView": 2,
      "byteOffset": 3145560,
      "componentType": 5126,
      "count": 65532,
      "max": [
        2.4513680934906006,
        0.8352559804916382,
        2.456413984298706
      ],
      "min": [
        -4.56007194519043,
        -0.7928069829940796,
        -1.48341703414917
      ],
      "type": "VEC3"
    },
    {
      "bufferView": 2,
      "byteOffset": 3931944,
      "componentType": 5126,
      "count": 65532,
      "max": [
        0.9999997615814209,
        1.0,
        0.9988783001899719
      ],
      "min": [
        -0.9999985694885254,
        -0.9998155832290649,
        -1.0
      ],
      "type": "VEC3"
    },
    {
      "bufferView": 1,
      "byteOffset": 4194080,
      "componentType": 5126,
      "count": 65532,
      "max": [
        0.7011939883232117,
        0.5269179940223694
      ],
      "min": [
        0.003836000105366111,
        0.06266498565673828
      ],
      "type": "VEC2"
    },
    {
      "bufferView": 1,
      "byteOffset": 4718336,
      "componentType": 5126,
      "count": 65532,
      "max": [
        0.7011939883232117,
        0.5269179940223694
      ],
      "min": [
        0.003836000105366111,
        0.06266498565673828
      ],
      "type": "VEC2"
    },
    {
      "bufferView": 1,
      "byteOffset": 5242592,
      "componentType": 5126,
      "count": 65532,
      "max": [
        0.7011939883232117,
        0.5269179940223694
      ],
      "min": [
        0.003836000105366111,
        0.06266498565673828
      ],
      "type": "VEC2"
    },
    {
      "bufferView": 1,
      "byteOffset": 5766848,
      "componentType": 5126,
      "count": 65532,
      "max": [
        0.7011939883232117,
        0.5269179940223694
      ],
      "min": [
        0.003836000105366111,
        0.06266498565673828
      ],
      "type": "VEC2"
    },
    {
      "bufferView": 0,
      "byteOffset": 659928,
      "componentType": 5125,
      "count": 105411,
      "type": "SCALAR"
    },
    {
      "bufferView": 2,
      "byteOffset": 4718328,
      "componentType": 5126,
      "count": 65532,
      "max": [
        2.513235092163086,
        1.1343799829483032,
        2.45672607421875
      ],
      "min": [
        -4.568389892578125,
        -0.8392789959907532,
        -1.489462971687317
      ],
      "type": "VEC3"
    },
    {
      "bufferView": 2,
      "byteOffset": 5504712,
      "componentType": 5126,
      "count": 65532,
      "max": [
        0.9999998807907104,
        0.9999998807907104,
        0.9903702735900879
      ],
      "min": [
        -0.9999866485595703,
        -0.9671122431755066,
        -0.9999997615814209
      ],
      "type": "VEC3"
    },
    {
      "bufferView": 1,
      "byteOffset": 6291104,
      "componentType": 5126,
      "count": 65532,
      "max": [
        0.8863610029220581,
        0.9957529902458191
      ],
      "min": [
        0.06358399987220764,
        0.2739959955215454
      ],
      "type": "VEC2"
    },
    {
      "bufferView": 1,
      "byteOffset": 6815360,
      "componentType": 5126,
      "count": 65532,
      "max": [
        0.8863610029220581,
        0.9957529902458191
      ],
      "min": [
        0.06358399987220764,
        0.2739959955215454
      ],
      "type": "VEC2"
    },
    {
      "bufferView": 1,
      "byteOffset": 7339616,
      "componentType": 5126,
      "count": 65532,
      "max": [
        0.8863610029220581,
        0.9957529902458191
      ],
      "min": [
        0.06358399987220764,
        0.2739959955215454
      ],
      "type": "VEC2"
    },
    {
      "bufferView": 1,
      "byteOffset": 7863872,
      "componentType": 5126,
      "count": 65532,
      "max": [
        0.8863610029220581,
        0.9957529902458191
      ],
      "min": [
        0.06358399987220764,
        0.2739959955215454
      ],
      "type": "VEC2"
    },
    {
      "bufferView": 0,
      "byteOffset": 1081572,
      "componentType": 5125,
      "count": 108033,
      "type": "SCALAR"
    },
    {
      "bufferView": 2,
      "byteOffset": 6291096,
      "componentType": 5126,
      "count": 65532,
      "max": [
        2.321655035018921,
        1.1348539590835571,
        2.4565958976745605
      ],
      "min": [
        -4.58473014831543,
        -0.8554019927978516,
        -1.4761849641799927
      ],
      "type": "VEC3"
    },
    {
      "bufferView": 2,
      "byteOffset": 7077480,
      "componentType": 5126,
      "count": 65532,
      "max": [
        0.9999992847442627,
        0.9999998807907104,
        0.9749016761779785
      ],
      "min": [
        -0.9999986886978149,
        -0.9548574686050415,
        -1.0
      ],
      "type": "VEC3"
    },
    {
      "bufferView": 1,
      "byteOffset": 8388128,
      "componentType": 5126,
      "count": 65532,
      "max": [
        0.9287840127944946,
        0.9706460237503052
      ],
      "min": [
        0.003889000043272972,
        0.5332130193710327
      ],
      "type": "VEC2"
    },
    {
      "bufferView": 1,
      "byteOffset": 8912384,
      "componentType": 5126,
      "count": 65532,
      "max": [
        0.9287840127944946,
        0.9706460237503052
      ],
      "min": [
        0.003889000043272972,
        0.5332130193710327
      ],
      "type": "VEC2"
    },
    {
      "bufferView": 1,
      "byteOffset": 9436640,
      "componentType": 5126,
      "count": 65532,
      "max": [
        0.9287840127944946,
        0.9706460237503052
      ],
      "min": [
        0.003889000043272972,
        0.5332130193710327
      ],
      "type": "VEC2"
    },
    {
      "bufferView": 1,
      "byteOffset": 9960896,
      "componentType": 5126,
      "count": 65532,
      "max": [
        0.9287840127944946,
        0.9706460237503052
      ],
      "min": [
        0.003889000043272972,
        0.5332130193710327
      ],
      "type": "VEC2"
    },
    {
      "bufferView": 0,
      "byteOffset": 1513704,
      "componentType": 5125,
      "count": 112362,
      "type": "SCALAR"
    },
    {
      "bufferView": 2,
      "byteOffset": 7863864,
      "componentType": 5126,
      "count": 65533,
      "max": [
        2.513235092163086,
        0.6920909881591797,
        2.4425270557403564
      ],
      "min": [
        -4.548689842224121,
        -0.8459179997444153,
        -1.4880410432815552
      ],
      "type": "VEC3"
    },
    {
      "bufferView": 2,
      "byteOffset": 8650260,
      "componentType": 5126,
      "count": 65533,
      "max": [
        0.9999996423721313,
        0.9999996423721313,
        0.9996741414070129
      ],
      "min": [
        -0.9999953508377075,
        -0.9999979734420776,
        -0.999997615814209
      ],
      "type": "VEC3"
    },
    {
      "bufferView": 1,
      "byteOffset": 10485152,
      "componentType": 5126,
      "count": 65533,
      "max": [
        0.9372270107269287,
        0.9958670139312744
      ],
      "min": [
        0.5156739950180054,
        0.5435490012168884
      ],
      "type": "VEC2"
    },
    {
      "bufferView": 1,
      "byteOffset": 11009416,
      "componentType": 5126,
      "count": 65533,
      "max": [
        0.9372270107269287,
        0.9958670139312744
      ],
      "min": [
        0.5156739950180054,
        0.5435490012168884
      ],
      "type": "VEC2"
    },
    {
      "bufferView": 1,
      "byteOffset": 11533680,
      "componentType": 5126,
      "count": 65533,
      "max": [
        0.9372270107269287,
        0.9958670139312744
      ],
      "min": [
        0.5156739950180054,
        0.5435490012168884
      ],
      "type": "VEC2"
    },
    {
      "bufferView": 1,
      "byteOffset": 12057944,
      "componentType": 5126,
      "count": 65533,
      "max": [
        0.9372270107269287,
        0.9958670139312744
      ],
      "min": [
        0.5156739950180054,
        0.5435490012168884
      ],
      "type": "VEC2"
    },
    {
      "bufferView": 0,
      "byteOffset": 1963152,
      "componentType": 5125,
      "count": 88221,
      "type": "SCALAR"
    },
    {
      "bufferView": 2,
      "byteOffset": 9436656,
      "componentType": 5126,
      "count": 50152,
      "max": [
        2.517029047012329,
        0.6932250261306763,
        2.4426279067993164
      ],
      "min": [
        -4.5520172119140625,
        -0.8000069856643677,
        -1.488752007484436
      ],
      "type": "VEC3"
    },
    {
      "bufferView": 2,
      "byteOffset": 10038480,
      "componentType": 5126,
      "count": 50152,
      "max": [
        0.9999990463256836,
        0.9999998807907104,
        0.9997778534889221
      ],
      "min": [
        -0.9999972581863403,
        -0.9999579191207886,
        -0.9999983310699463
      ],
      "type": "VEC3"
    },
    {
      "bufferView": 1,
      "byteOffset": 12582208,
      "componentType": 5126,
      "count": 50152,
      "max": [
        0.7798720002174377,
        0.8133040070533752
      ],
      "min": [
        0.0038159999530762434,
        0.08378398418426514
      ],
      "type": "VEC2"
    },
    {
      "bufferView": 1,
      "byteOffset": 12983424,
      "componentType": 5126,
      "count": 50152,
      "max": [
        0.7798720002174377,
        0.8133040070533752
      ],
      "min": [
        0.0038159999530762434,
        0.08378398418426514
      ],
      "type": "VEC2"
    },
    {
      "bufferView": 1,
      "byteOffset": 13384640,
      "componentType": 5126,
      "count": 50152,
      "max": [
        0.7798720002174377,
        0.8133040070533752
      ],
      "min": [
        0.0038159999530762434,
        0.08378398418426514
      ],
      "type": "VEC2"
    },
    {
      "bufferView": 1,
      "byteOffset": 13785856,
      "componentType": 5126,
      "count": 50152,
      "max": [
        0.7798720002174377,
        0.8133040070533752
      ],
      "min": [
        0.0038159999530762434,
        0.08378398418426514
      ],
      "type": "VEC2"
    },
    {
      "bufferView": 0,
      "byteOffset": 2316036,
      "componentType": 5125,
      "count": 73290,
      "type": "SCALAR"
    }
  ],
  "asset": {
    "extras": {
      "author": "Cygnos (https://sketchfab.com/cygnos)",
      "license": "CC-BY-4.0 (http://creativecommons.org/licenses/by/4.0/)",
      "source": "https://sketchfab.com/3d-models/coffee-station-and-safety-setup-f3709bc66f574765886febf04747b4fb",
      "title": "Coffee Station and Safety Setup"
    },
    "generator": "Sketchfab-16.56.0",
    "version": "2.0"
  },
  "bufferViews": [
    {
      "buffer": 0,
      "byteLength": 2609196,
      "name": "floatBufferViews",
      "target": 34963
    },
    {
      "buffer": 0,
      "byteLength": 14187072,
      "byteOffset": 2609196,
      "byteStride": 8,
      "name": "floatBufferViews",
      "target": 34962
    },
    {
      "buffer": 0,
      "byteLength": 10640304,
      "byteOffset": 16796268,
      "byteStride": 12,
      "name": "floatBufferViews",
      "target": 34962
    }
  ],
  "buffers": [
    {
      "byteLength": 27436572,
      "uri": "scene.bin"
    }
  ],
  "extensionsRequired": [
    "KHR_materials_pbrSpecularGlossiness"
  ],
  "extensionsUsed": [
    "KHR_materials_pbrSpecularGlossiness"
  ],
  "images": [
    {
      "uri": "textures/material0000.005_diffuse.jpeg"
    },
    {
      "uri": "textures/material0000.005_specularGlossiness.png"
    }
  ],
  "materials": [
    {
      "doubleSided": true,
      "extensions": {
        "KHR_materials_pbrSpecularGlossiness": {
          "diffuseFactor": [
            1.0,
            1.0,
            1.0,
            1.0
          ],
          "diffuseTexture": {
            "index": 0
          },
          "glossinessFactor": 1.0,
          "specularFactor": [
            1.0,
            1.0,
            1.0
          ],
          "specularGlossinessTexture": {
            "index": 1,
            "texCoord": 1
          }
        }
      },
      "name": "material0000.005"
    }
  ],
  "meshes": [
    {
      "name": "Object_0",
      "primitives": [
        {
          "attributes": {
            "NORMAL": 1,
            "POSITION": 0,
            "TEXCOORD_0": 2,
            "TEXCOORD_1": 3,
            "TEXCOORD_2": 4,
            "TEXCOORD_3": 5
          },
          "indices": 6,
          "material": 0,
          "mode": 4
        }
      ]
    },
    {
      "name": "Object_1",
      "primitives": [
        {
          "attributes": {
            "NORMAL": 8,
            "POSITION": 7,
            "TEXCOORD_0": 9,
            "TEXCOORD_1": 10,
            "TEXCOORD_2": 11,
            "TEXCOORD_3": 12
          },
          "indices": 13,
          "material": 0,
          "mode": 4
        }
      ]
    },
    {
      "name": "Object_2",
      "primitives": [
        {
          "attributes": {
            "NORMAL": 15,
            "POSITION": 14,
            "TEXCOORD_0": 16,
            "TEXCOORD_1": 17,
            "TEXCOORD_2": 18,
            "TEXCOORD_3": 19
          },
          "indices": 20,
          "material": 0,
          "mode": 4
        }
      ]
    },
    {
      "name": "Object_3",
      "primitives": [
        {
          "attributes": {
            "NORMAL": 22,
            "POSITION": 21,
            "TEXCOORD_0": 23,
            "TEXCOORD_1": 24,
            "TEXCOORD_2": 25,
            "TEXCOORD_3": 26
          },
          "indices": 27,
          "material": 0,
          "mode": 4
        }
      ]
    },
    {
      "name": "Object_4",
      "primitives": [
        {
          "attributes": {
            "NORMAL": 29,
            "POSITION": 28,
            "TEXCOORD_0": 30,
            "TEXCOORD_1": 31,
            "TEXCOORD_2": 32,
            "TEXCOORD_3": 33
          },
          "indices": 34,
          "material": 0,
          "mode": 4
        }
      ]
    },
    {
      "name": "Object_5",
      "primitives": [
        {
          "attributes": {
            "NORMAL": 36,
            "POSITION": 35,
            "TEXCOORD_0": 37,
            "TEXCOORD_1": 38,
            "TEXCOORD_2": 39,
            "TEXCOORD_3": 40
          },
          "indices": 41,
          "material": 0,
          "mode": 4
        }
      ]
    },
    {
      "name": "Object_6",
      "primitives": [
        {
          "attributes": {
            "NORMAL": 43,
            "POSITION": 42,
            "TEXCOORD_0": 44,
            "TEXCOORD_1": 45,
            "TEXCOORD_2": 46,
            "TEXCOORD_3": 47
          },
          "indices": 48,
          "material": 0,
          "mode": 4
        }
      ]
    }
  ],
  "nodes": [
    {
      "children": [
        1
      ],
      "matrix": [
        1.0,
        0.0,
        0.0,
        0.0,
        0.0,
        2.220446049250313e-16,
        -1.0,
        0.0,
        0.0,
        1.0,
        2.220446049250313e-16,
        0.0,
        0.0,
        0.0,
        0.0,
        1.0
      ],
      "name": "Sketchfab_model"
    },
    {
      "children": [
        2
      ],
      "name": "root"
    },
    {
      "children": [
        3
      ],
      "matrix": [
        1.0,
        0.0,
        0.0,
        0.0,
        0.0,
        2.220446049250313e-16,
        1.0,
        0.0,
        0.0,
        -1.0,
        2.220446049250313e-16,
        0.0,
        0.0,
        0.0,
        0.0,
        1.0
      ],
      "name": "GLTF_SceneRootNode"
    },
    {
      "children": [
        4,
        5,
        6,
        7,
        8,
        9,
        10
      ],
      "matrix": [
        1.0,
        0.0,
        0.0,
        0.0,
        0.0,
        0.0,
        1.0,
        0.0,
        0.0,
        -1.0,
        0.0,
        0.0,
        0.0,
        2.4492597579956055,
        0.0,
        1.0
      ],
      "name": "3DModel_0"
    },
    {
      "mesh": 0,
      "name": "Object_4"
    },
    {
      "mesh": 1,
      "name": "Object_5"
    },
    {
      "mesh": 2,
      "name": "Object_6"
    },
    {
      "mesh": 3,
      "name": "Object_7"
    },
    {
      "mesh": 4,
      "name": "Object_8"
    },
    {
      "mesh": 5,
      "name": "Object_9"
    },
    {
      "mesh": 6,
      "name": "Object_10"
    }
  ],
  "samplers": [
    {
      "magFilter": 9729,
      "minFilter": 9987,
      "wrapS": 10497,
      "wrapT": 10497
    }
  ],
  "scene": 0,
  "scenes": [
    {
      "name": "Sketchfab_Scene",
      "nodes": [
        0
      ]
    }
  ],
  "textures": [
    {
      "sampler": 0,
      "source": 0
    },
    {
      "sampler": 0,
      "source": 1
    }
  ]
}
