{
  "accessors": [
    {
      "bufferView": 2,
      "componentType": 5126,
      "count": 292,
      "max": [
        0.024388378486037254,
        0.05407938361167908,
        -0.0
      ],
      "min": [
        -3.665956279610897e-17,
        9.429262585882865e-18,
        -0.02500000037252903
      ],
      "type": "VEC3"
    },
    {
      "bufferView": 2,
      "byteOffset": 3504,
      "componentType": 5126,
      "count": 292,
      "max": [
        0.9935807585716248,
        1.0,
        1.0
      ],
      "min": [
        -0.9948362708091736,
        -1.0,
        -1.0
      ],
      "type": "VEC3"
    },
    {
      "bufferView": 1,
      "componentType": 5126,
      "count": 292,
      "max": [
        0.9842519760131836,
        2.3042967319488525
      ],
      "min": [
        -0.9842519760131836,
        -0.39852839708328247
      ],
      "type": "VEC2"
    },
    {
      "bufferView": 0,
      "componentType": 5125,
      "count": 405,
      "type": "SCALAR"
    },
    {
      "bufferView": 2,
      "byteOffset": 7008,
      "componentType": 5126,
      "count": 340,
      "max": [
        0.024388378486037254,
        0.05407938361167908,
        -0.0
      ],
      "min": [
        -3.665956279610897e-17,
        9.429262585882865e-18,
        -0.02500000037252903
      ],
      "type": "VEC3"
    },
    {
      "bufferView": 2,
      "byteOffset": 11088,
      "componentType": 5126,
      "count": 340,
      "max": [
        -0.0,
        0.8240956664085388,
        1.0
      ],
      "min": [
        -1.0,
        0.0,
        -1.0
      ],
      "type": "VEC3"
    },
    {
      "bufferView": 1,
      "byteOffset": 2336,
      "componentType": 5126,
      "count": 340,
      "max": [
        3.4797542095184326,
        3.762596607208252
      ],
      "min": [
        -31.491779327392578,
        -0.9633070230484009
      ],
      "type": "VEC2"
    },
    {
      "bufferView": 0,
      "byteOffset": 1620,
      "componentType": 5125,
      "count": 504,
      "type": "SCALAR"
    },
    {
      "bufferView": 2,
      "byteOffset": 15168,
      "componentType": 5126,
      "count": 800,
      "max": [
        0.024618852883577347,
        0.054577361792325974,
        1.0
      ],
      "min": [
        0.0,
        0.0,
        -2.0
      ],
      "type": "VEC3"
    },
    {
      "bufferView": 2,
      "byteOffset": 24768,
      "componentType": 5126,
      "count": 800,
      "max": [
        1.0,
        1.0,
        0.8413049578666687
      ],
      "min": [
        -1.0,
        -1.0,
        -0.8413330316543579
      ],
      "type": "VEC3"
    },
    {
      "bufferView": 1,
      "byteOffset": 5056,
      "componentType": 5126,
      "count": 800,
      "max": [
        78.74015808105469,
        78.74015808105469
      ],
      "min": [
        -78.74015808105469,
        -39.370079040527344
      ],
      "type": "VEC2"
    },
    {
      "bufferView": 0,
      "byteOffset": 3636,
      "componentType": 5125,
      "count": 1176,
      "type": "SCALAR"
    },
    {
      "bufferView": 2,
      "byteOffset": 34368,
      "componentType": 5126,
      "count": 782,
      "max": [
        0.024618852883577347,
        0.054577361792325974,
        1.0
      ],
      "min": [
        0.0,
        0.0,
        -2.0
      ],
      "type": "VEC3"
    },
    {
      "bufferView": 2,
      "byteOffset": 43752,
      "componentType": 5126,
      "count": 782,
      "max": [
        -0.0,
        1.0,
        1.0
      ],
      "min": [
        -1.0,
        0.0,
        -1.0
      ],
      "type": "VEC3"
    },
    {
      "bufferView": 1,
      "byteOffset": 11456,
      "componentType": 5126,
      "count": 782,
      "max": [
        36.645259857177734,
        1.4303399324417114
      ],
      "min": [
        -66.52661895751953,
        -1.0664610862731934
      ],
      "type": "VEC2"
    },
    {
      "bufferView": 0,
      "byteOffset": 8340,
      "componentType": 5125,
      "count": 1524,
      "type": "SCALAR"
    },
    {
      "bufferView": 2,
      "byteOffset": 53136,
      "componentType": 5126,
      "count": 211,
      "max": [
        0.020889362320303917,
        0.03080667369067669,
        -0.0
      ],
      "min": [
        0.0,
        0.0,
        -0.021097134798765182
      ],
      "type": "VEC3"
    },
    {
      "bufferView": 2,
      "byteOffset": 55668,
      "componentType": 5126,
      "count": 211,
      "max": [
        1.0,
        0.9955767393112183,
        1.0
      ],
      "min": [
        -1.0,
        -0.9955765604972839,
        -1.0
      ],
      "type": "VEC3"
    },
    {
      "bufferView": 1,
      "byteOffset": 17712,
      "componentType": 5126,
      "count": 211,
      "max": [
        0.0,
        0.0
      ],
      "min": [
        0.0,
        0.0
      ],
      "type": "VEC2"
    },
    {
      "bufferView": 0,
      "byteOffset": 14436,
      "componentType": 5125,
      "count": 288,
      "type": "SCALAR"
    },
    {
      "bufferView": 2,
      "byteOffset": 58200,
      "componentType": 5126,
      "count": 2293,
      "max": [
        0.030388377606868744,
        0.05457837134599686,
        -0.0
      ],
      "min": [
        0.0,
        1.011094809655333e-06,
        -0.030388377606868744
      ],
      "type": "VEC3"
    },
    {
      "bufferView": 2,
      "byteOffset": 85716,
      "componentType": 5126,
      "count": 2293,
      "max": [
        0.9740727543830872,
        0.8727572560310364,
        0.9045395851135254
      ],
      "min": [
        -0.949576199054718,
        -0.9869264960289001,
        -0.9740872383117676
      ],
      "type": "VEC3"
    },
    {
      "bufferView": 1,
      "byteOffset": 19400,
      "componentType": 5126,
      "count": 2293,
      "max": [
        1.0359067916870117,
        2.3891661167144775
      ],
      "min": [
        -1.0470757484436035,
        2.594919968704123e-18
      ],
      "type": "VEC2"
    },
    {
      "bufferView": 0,
      "byteOffset": 15588,
      "componentType": 5125,
      "count": 3489,
      "type": "SCALAR"
    },
    {
      "bufferView": 2,
      "byteOffset": 113232,
      "componentType": 5126,
      "count": 1766,
      "max": [
        0.030388377606868744,
        0.05457837134599686,
        -0.0
      ],
      "min": [
        0.0,
        0.0,
        -0.030388377606868744
      ],
      "type": "VEC3"
    },
    {
      "bufferView": 2,
      "byteOffset": 134424,
      "componentType": 5126,
      "count": 1766,
      "max": [
        1.0,
        1.0,
        1.0
      ],
      "min": [
        -1.0,
        -1.0,
        -0.9740872383117676
      ],
      "type": "VEC3"
    },
    {
      "bufferView": 1,
      "byteOffset": 37744,
      "componentType": 5126,
      "count": 1766,
      "max": [
        11.312992095947266,
        36.82602310180664
      ],
      "min": [
        -66.65828704833984,
        -2.8787965774536133
      ],
      "type": "VEC2"
    },
    {
      "bufferView": 0,
      "byteOffset": 29544,
      "componentType": 5125,
      "count": 4062,
      "type": "SCALAR"
    },
    {
      "bufferView": 2,
      "byteOffset": 155616,
      "componentType": 5126,
      "count": 350,
      "max": [
        0.024388378486037254,
        0.05407938361167908,
        -0.013000000268220901
      ],
      "min": [
        -3.665956279610897e-17,
        9.429262585882865e-18,
        -0.02500000037252903
      ],
      "type": "VEC3"
    },
    {
      "bufferView": 2,
      "byteOffset": 159816,
      "componentType": 5126,
      "count": 350,
      "max": [
        1.0,
        1.0,
        1.0
      ],
      "min": [
        -0.9948362112045288,
        -1.0,
        -1.0
      ],
      "type": "VEC3"
    },
    {
      "bufferView": 1,
      "byteOffset": 51872,
      "componentType": 5126,
      "count": 350,
      "max": [
        0.9842519760131836,
        2.3042967319488525
      ],
      "min": [
        -0.9842519760131836,
        -0.39852839708328247
      ],
      "type": "VEC2"
    },
    {
      "bufferView": 0,
      "byteOffset": 45792,
      "componentType": 5125,
      "count": 507,
      "type": "SCALAR"
    },
    {
      "bufferView": 2,
      "byteOffset": 164016,
      "componentType": 5126,
      "count": 243,
      "max": [
        0.024388378486037254,
        0.05407938361167908,
        -0.013000000268220901
      ],
      "min": [
        -3.665956279610897e-17,
        9.429262585882865e-18,
        -0.02500000037252903
      ],
      "type": "VEC3"
    },
    {
      "bufferView": 2,
      "byteOffset": 166932,
      "componentType": 5126,
      "count": 243,
      "max": [
        -0.0,
        1.0,
        1.0
      ],
      "min": [
        -1.0,
        0.0,
        -1.0
      ],
      "type": "VEC3"
    },
    {
      "bufferView": 1,
      "byteOffset": 54672,
      "componentType": 5126,
      "count": 243,
      "max": [
        3.687694549560547,
        3.762596607208252
      ],
      "min": [
        -31.491779327392578,
        -0.9629634618759155
      ],
      "type": "VEC2"
    },
    {
      "bufferView": 0,
      "byteOffset": 47820,
      "componentType": 5125,
      "count": 432,
      "type": "SCALAR"
    },
    {
      "bufferView": 2,
      "byteOffset": 169848,
      "componentType": 5126,
      "count": 324,
      "max": [
        0.009924221783876419,
        0.0157807357609272,
        1.0
      ],
      "min": [
        -9.023893032144474e-16,
        -1.2182255487515922e-15,
        -2.0
      ],
      "type": "VEC3"
    },
    {
      "bufferView": 2,
      "byteOffset": 173736,
      "componentType": 5126,
      "count": 324,
      "max": [
        1.0,
        1.0,
        1.0
      ],
      "min": [
        -0.6967660784721375,
        -1.0,
        -1.0
      ],
      "type": "VEC3"
    },
    {
      "bufferView": 1,
      "byteOffset": 56616,
      "componentType": 5126,
      "count": 324,
      "max": [
        78.74015808105469,
        78.74015808105469
      ],
      "min": [
        -78.74015808105469,
        -39.370079040527344
      ],
      "type": "VEC2"
    },
    {
      "bufferView": 0,
      "byteOffset": 49548,
      "componentType": 5125,
      "count": 570,
      "type": "SCALAR"
    },
    {
      "bufferView": 2,
      "byteOffset": 177624,
      "componentType": 5126,
      "count": 4,
      "max": [
        0.0017941606929525733,
        0.0157807357609272,
        1.0
      ],
      "min": [
        -9.023893032144474e-16,
        2.2719366825185716e-05,
        -2.0
      ],
      "type": "VEC3"
    },
    {
      "bufferView": 2,
      "byteOffset": 177672,
      "componentType": 5126,
      "count": 4,
      "max": [
        -0.99358069896698,
        0.11312612146139145,
        -0.0
      ],
      "min": [
        -0.99358069896698,
        0.11312612146139145,
        -0.0
      ],
      "type": "VEC3"
    },
    {
      "bufferView": 1,
      "byteOffset": 59208,
      "componentType": 5126,
      "count": 4,
      "max": [
        36.64408874511719,
        0.5937593579292297
      ],
      "min": [
        -66.02204895019531,
        -0.028307437896728516
      ],
      "type": "VEC2"
    },
    {
      "bufferView": 0,
      "byteOffset": 51828,
      "componentType": 5125,
      "count": 6,
      "type": "SCALAR"
    }
  ],
  "asset": {
    "extras": {
      "author": "Ivan.Ivanov (https://sketchfab.com/Ivan.Ivanov)",
      "license": "CC-BY-4.0 (http://creativecommons.org/licenses/by/4.0/)",
      "source": "https://sketchfab.com/3d-models/skirting-board-for-the-floor-0855d4557d21404089f9e02539f55a8a",
      "title": "Перваз за под - Skirting board for the floor"
    },
    "generator": "Sketchfab-13.74.0",
    "version": "2.0"
  },
  "bufferViews": [
    {
      "buffer": 0,
      "byteLength": 51852,
      "name": "floatBufferViews",
      "target": 34963
    },
    {
      "buffer": 0,
      "byteLength": 59240,
      "byteOffset": 51852,
      "byteStride": 8,
      "name": "floatBufferViews",
      "target": 34962
    },
    {
      "buffer": 0,
      "byteLength": 177720,
      "byteOffset": 111092,
      "byteStride": 12,
      "name": "floatBufferViews",
      "target": 34962
    }
  ],
  "buffers": [
    {
      "byteLength": 288812,
      "uri": "cene.bin"
    }
  ],
  "images": [
    {
      "uri": "textures/0041_Chocolate_metallicRoughness.png"
    },
    {
      "uri": "textures/material_baseColor.png"
    }
  ],
  "materials": [
    {
      "doubleSided": true,
      "name": "0041_Chocolate",
      "pbrMetallicRoughness": {
        "baseColorFactor": [
          0.5757194013916181,
          0.17659810222989147,
          0.011214532864398778,
          1.0
        ],
        "metallicRoughnessTexture": {
          "index": 0
        }
      }
    },
    {
      "doubleSided": true,
      "name": "material",
      "pbrMetallicRoughness": {
        "baseColorFactor": [
          0.47598670809492827,
          0.47598670809492827,
          0.47598670809492827,
          1.0
        ],
        "baseColorTexture": {
          "index": 1
        },
        "metallicFactor": 0.0
      }
    }
  ],
  "meshes": [
    {
      "name": "Object_0",
      "primitives": [
        {
          "attributes": {
            "NORMAL": 1,
            "POSITION": 0,
            "TEXCOORD_0": 2
          },
          "indices": 3,
          "material": 0,
          "mode": 4
        }
      ]
    },
    {
      "name": "Object_1",
      "primitives": [
        {
          "attributes": {
            "NORMAL": 5,
            "POSITION": 4,
            "TEXCOORD_0": 6
          },
          "indices": 7,
          "material": 1,
          "mode": 4
        }
      ]
    },
    {
      "name": "Object_2",
      "primitives": [
        {
          "attributes": {
            "NORMAL": 9,
            "POSITION": 8,
            "TEXCOORD_0": 10
          },
          "indices": 11,
          "material": 0,
          "mode": 4
        }
      ]
    },
    {
      "name": "Object_3",
      "primitives": [
        {
          "attributes": {
            "NORMAL": 13,
            "POSITION": 12,
            "TEXCOORD_0": 14
          },
          "indices": 15,
          "material": 1,
          "mode": 4
        }
      ]
    },
    {
      "name": "Object_4",
      "primitives": [
        {
          "attributes": {
            "NORMAL": 17,
            "POSITION": 16,
            "TEXCOORD_0": 18
          },
          "indices": 19,
          "material": 0,
          "mode": 4
        }
      ]
    },
    {
      "name": "Object_5",
      "primitives": [
        {
          "attributes": {
            "NORMAL": 21,
            "POSITION": 20,
            "TEXCOORD_0": 22
          },
          "indices": 23,
          "material": 0,
          "mode": 4
        }
      ]
    },
    {
      "name": "Object_6",
      "primitives": [
        {
          "attributes": {
            "NORMAL": 25,
            "POSITION": 24,
            "TEXCOORD_0": 26
          },
          "indices": 27,
          "material": 1,
          "mode": 4
        }
      ]
    },
    {
      "name": "Object_7",
      "primitives": [
        {
          "attributes": {
            "NORMAL": 29,
            "POSITION": 28,
            "TEXCOORD_0": 30
          },
          "indices": 31,
          "material": 0,
          "mode": 4
        }
      ]
    },
    {
      "name": "Object_8",
      "primitives": [
        {
          "attributes": {
            "NORMAL": 33,
            "POSITION": 32,
            "TEXCOORD_0": 34
          },
          "indices": 35,
          "material": 1,
          "mode": 4
        }
      ]
    },
    {
      "name": "Object_9",
      "primitives": [
        {
          "attributes": {
            "NORMAL": 37,
            "POSITION": 36,
            "TEXCOORD_0": 38
          },
          "indices": 39,
          "material": 0,
          "mode": 4
        }
      ]
    },
    {
      "name": "Object_10",
      "primitives": [
        {
          "attributes": {
            "NORMAL": 41,
            "POSITION": 40,
            "TEXCOORD_0": 42
          },
          "indices": 43,
          "material": 1,
          "mode": 4
        }
      ]
    }
  ],
  "nodes": [
    {
      "children": [
        1
      ],
      "matrix": [
        1.0,
        0.0,
        0.0,
        0.0,
        0.0,
        2.220446049250313e-16,
        -1.0,
        0.0,
        0.0,
        1.0,
        2.220446049250313e-16,
        0.0,
        0.0,
        0.0,
        0.0,
        1.0
      ],
      "name": "Sketchfab_model"
    },
    {
      "children": [
        2
      ],
      "name": "root"
    },
    {
      "children": [
        3,
        6,
        9,
        11,
        14,
        17
      ],
      "matrix": [
        1.0,
        0.0,
        0.0,
        0.0,
        0.0,
        2.220446049250313e-16,
        1.0,
        0.0,
        0.0,
        -1.0,
        2.220446049250313e-16,
        0.0,
        0.0,
        0.0,
        0.0,
        1.0
      ],
      "name": "GLTF_SceneRootNode"
    },
    {
      "children": [
        4,
        5
      ],
      "matrix": [
        1.0,
        0.0,
        0.0,
        0.0,
        0.0,
        1.0,
        0.0,
        0.0,
        0.0,
        0.0,
        1.0,
        0.0,
        -0.02520202286541462,
        0.044057697057724,
        1.4478793144226074,
        1.0
      ],
      "name": "G-__555564_0"
    },
    {
      "mesh": 0,
      "name": "Object_4"
    },
    {
      "mesh": 1,
      "name": "Object_5"
    },
    {
      "children": [
        7,
        8
      ],
      "matrix": [
        1.0,
        0.0,
        0.0,
        0.0,
        0.0,
        1.0,
        0.0,
        0.0,
        0.0,
        0.0,
        1.0,
        0.0,
        -0.02520202286541462,
        0.0435597188770771,
        0.3778793513774872,
        1.0
      ],
      "name": "G-__555573_1"
    },
    {
      "mesh": 2,
      "name": "Object_7"
    },
    {
      "mesh": 3,
      "name": "Object_8"
    },
    {
      "children": [
        10
      ],
      "matrix": [
        1.0,
        0.0,
        0.0,
        0.0,
        0.0,
        1.0,
        0.0,
        0.0,
        0.0,
        0.0,
        1.0,
        0.0,
        -0.03108801692724228,
        0.05218389630317688,
        1.533065676689148,
        1.0
      ],
      "name": "G-__555600_2"
    },
    {
      "mesh": 4,
      "name": "Object_10"
    },
    {
      "children": [
        12,
        13
      ],
      "matrix": [
        1.0,
        0.0,
        0.0,
        0.0,
        0.0,
        1.0,
        0.0,
        0.0,
        0.0,
        0.0,
        1.0,
        0.0,
        -0.03120202198624611,
        0.04355870932340622,
        1.5328593254089355,
        1.0
      ],
      "name": "G-__555609_3"
    },
    {
      "mesh": 5,
      "name": "Object_12"
    },
    {
      "mesh": 6,
      "name": "Object_13"
    },
    {
      "children": [
        15,
        16
      ],
      "matrix": [
        1.0,
        0.0,
        0.0,
        0.0,
        0.0,
        1.0,
        0.0,
        0.0,
        0.0,
        0.0,
        1.0,
        0.0,
        -0.02520202286541462,
        0.044057697057724,
        1.4997550249099731,
        1.0
      ],
      "name": "G-__555618_4"
    },
    {
      "mesh": 7,
      "name": "Object_15"
    },
    {
      "mesh": 8,
      "name": "Object_16"
    },
    {
      "children": [
        18,
        19
      ],
      "matrix": [
        1.0,
        0.0,
        0.0,
        0.0,
        0.0,
        1.0,
        0.0,
        0.0,
        0.0,
        0.0,
        1.0,
        0.0,
        -0.015508055686950684,
        0.059229519218206406,
        0.3778793513774872,
        1.0
      ],
      "name": "G-__555627_5"
    },
    {
      "mesh": 9,
      "name": "Object_18"
    },
    {
      "mesh": 10,
      "name": "Object_19"
    }
  ],
  "samplers": [
    {
      "magFilter": 9729,
      "minFilter": 9987,
      "wrapS": 10497,
      "wrapT": 10497
    }
  ],
  "scene": 0,
  "scenes": [
    {
      "name": "Sketchfab_Scene",
      "nodes": [
        0
      ]
    }
  ],
  "textures": [
    {
      "sampler": 0,
      "source": 0
    },
    {
      "sampler": 0,
      "source": 1
    }
  ]
}
