{
  "accessors": [
    {
      "bufferView": 2,
      "componentType": 5126,
      "count": 205,
      "max": [
        1.0,
        1.689520001411438,
        -1.3223299980163574
      ],
      "min": [
        -1.0,
        0.6872760057449341,
        -2.2428700923919678
      ],
      "type": "VEC3"
    },
    {
      "bufferView": 2,
      "byteOffset": 2460,
      "componentType": 5126,
      "count": 205,
      "max": [
        1.0,
        0.9996798634529114,
        1.0
      ],
      "min": [
        -1.0,
        -0.056094616651535034,
        -1.0
      ],
      "type": "VEC3"
    },
    {
      "bufferView": 3,
      "componentType": 5126,
      "count": 205,
      "max": [
        0.9999998807907104,
        0.9999793767929077,
        0.8812684416770935,
        1.0
      ],
      "min": [
        -0.5386720299720764,
        -0.9999945163726807,
        -0.8380898833274841,
        -1.0
      ],
      "type": "VEC4"
    },
    {
      "bufferView": 1,
      "componentType": 5126,
      "count": 205,
      "max": [
        0.9904990196228027,
        0.9942139983177185
      ],
      "min": [
        0.010037099942564964,
        0.005178280174732208
      ],
      "type": "VEC2"
    },
    {
      "bufferView": 0,
      "componentType": 5125,
      "count": 882,
      "type": "SCALAR"
    },
    {
      "bufferView": 2,
      "byteOffset": 4920,
      "componentType": 5126,
      "count": 205,
      "max": [
        1.0,
        1.0953199863433838,
        -0.43102800846099854
      ],
      "min": [
        -1.0,
        0.09307599812746048,
        -1.3515700101852417
      ],
      "type": "VEC3"
    },
    {
      "bufferView": 2,
      "byteOffset": 7380,
      "componentType": 5126,
      "count": 205,
      "max": [
        1.0,
        0.9996798634529114,
        1.0
      ],
      "min": [
        -1.0,
        -0.056094616651535034,
        -1.0
      ],
      "type": "VEC3"
    },
    {
      "bufferView": 3,
      "byteOffset": 3280,
      "componentType": 5126,
      "count": 205,
      "max": [
        0.9999998807907104,
        0.9999793767929077,
        0.8812701106071472,
        1.0
      ],
      "min": [
        -0.5386660099029541,
        -0.9999945759773254,
        -0.8380898833274841,
        -1.0
      ],
      "type": "VEC4"
    },
    {
      "bufferView": 1,
      "byteOffset": 1640,
      "componentType": 5126,
      "count": 205,
      "max": [
        0.9904990196228027,
        0.9942139983177185
      ],
      "min": [
        0.010037099942564964,
        0.005178280174732208
      ],
      "type": "VEC2"
    },
    {
      "bufferView": 0,
      "byteOffset": 3528,
      "componentType": 5125,
      "count": 882,
      "type": "SCALAR"
    },
    {
      "bufferView": 2,
      "byteOffset": 9840,
      "componentType": 5126,
      "count": 205,
      "max": [
        1.0,
        0.5011240243911743,
        0.46027201414108276
      ],
      "min": [
        -1.0,
        -0.5011240243911743,
        -0.46027201414108276
      ],
      "type": "VEC3"
    },
    {
      "bufferView": 2,
      "byteOffset": 12300,
      "componentType": 5126,
      "count": 205,
      "max": [
        1.0,
        0.9996798634529114,
        1.0
      ],
      "min": [
        -1.0,
        -0.056094616651535034,
        -1.0
      ],
      "type": "VEC3"
    },
    {
      "bufferView": 3,
      "byteOffset": 6560,
      "componentType": 5126,
      "count": 205,
      "max": [
        0.9999998807907104,
        0.9999793767929077,
        0.8812684416770935,
        1.0
      ],
      "min": [
        -0.5386689901351929,
        -0.9999945759773254,
        -0.8380898833274841,
        -1.0
      ],
      "type": "VEC4"
    },
    {
      "bufferView": 1,
      "byteOffset": 3280,
      "componentType": 5126,
      "count": 205,
      "max": [
        0.9904990196228027,
        0.9942139983177185
      ],
      "min": [
        0.010037099942564964,
        0.005178280174732208
      ],
      "type": "VEC2"
    },
    {
      "bufferView": 0,
      "byteOffset": 7056,
      "componentType": 5125,
      "count": 882,
      "type": "SCALAR"
    }
  ],
  "asset": {
    "extras": {
      "author": "Danylo Tyupa (https://sketchfab.com/danzl0)",
      "license": "CC-BY-4.0 (http://creativecommons.org/licenses/by/4.0/)",
      "source": "https://sketchfab.com/3d-models/gray-stairs-modular-snappable-3f25551a652c4ac19b554070a0798390",
      "title": "Gray stairs (Modular, snappable)"
    },
    "generator": "Sketchfab-12.68.0",
    "version": "2.0"
  },
  "bufferViews": [
    {
      "buffer": 0,
      "byteLength": 10584,
      "name": "floatBufferViews",
      "target": 34963
    },
    {
      "buffer": 0,
      "byteLength": 4920,
      "byteOffset": 10584,
      "byteStride": 8,
      "name": "floatBufferViews",
      "target": 34962
    },
    {
      "buffer": 0,
      "byteLength": 14760,
      "byteOffset": 15504,
      "byteStride": 12,
      "name": "floatBufferViews",
      "target": 34962
    },
    {
      "buffer": 0,
      "byteLength": 9840,
      "byteOffset": 30264,
      "byteStride": 16,
      "name": "floatBufferViews",
      "target": 34962
    }
  ],
  "buffers": [
    {
      "byteLength": 40104,
      "uri": "scene.bin"
    }
  ],
  "images": [
    {
      "uri": "textures/lambert4_baseColor.jpeg"
    },
    {
      "uri": "textures/lambert4_metallicRoughness.png"
    },
    {
      "uri": "textures/lambert4_normal.jpeg"
    }
  ],
  "materials": [
    {
      "doubleSided": true,
      "name": "lambert4",
      "normalTexture": {
        "index": 2
      },
      "occlusionTexture": {
        "index": 1
      },
      "pbrMetallicRoughness": {
        "baseColorTexture": {
          "index": 0
        },
        "metallicRoughnessTexture": {
          "index": 1
        },
        "roughnessFactor": 0.5748856707
      }
    }
  ],
  "meshes": [
    {
      "name": "defaultMaterial",
      "primitives": [
        {
          "attributes": {
            "NORMAL": 1,
            "POSITION": 0,
            "TANGENT": 2,
            "TEXCOORD_0": 3
          },
          "indices": 4,
          "material": 0,
          "mode": 4
        }
      ]
    },
    {
      "name": "defaultMaterial",
      "primitives": [
        {
          "attributes": {
            "NORMAL": 6,
            "POSITION": 5,
            "TANGENT": 7,
            "TEXCOORD_0": 8
          },
          "indices": 9,
          "material": 0,
          "mode": 4
        }
      ]
    },
    {
      "name": "defaultMaterial",
      "primitives": [
        {
          "attributes": {
            "NORMAL": 11,
            "POSITION": 10,
            "TANGENT": 12,
            "TEXCOORD_0": 13
          },
          "indices": 14,
          "material": 0,
          "mode": 4
        }
      ]
    }
  ],
  "nodes": [
    {
      "children": [
        1
      ],
      "matrix": [
        1.0,
        0.0,
        0.0,
        0.0,
        0.0,
        2.220446049250313e-16,
        -1.0,
        0.0,
        0.0,
        1.0,
        2.220446049250313e-16,
        0.0,
        0.0,
        0.0,
        0.0,
        1.0
      ],
      "name": "Sketchfab_model"
    },
    {
      "children": [
        2,
        4,
        6
      ],
      "matrix": [
        1.0,
        0.0,
        0.0,
        0.0,
        0.0,
        -4.371139006309477e-08,
        0.999999999999999,
        0.0,
        0.0,
        -0.999999999999999,
        -4.371139006309477e-08,
        0.0,
        0.0,
        0.0,
        0.0,
        1.0
      ],
      "name": "Collada visual scene group"
    },
    {
      "children": [
        3
      ],
      "name": "polySurface54"
    },
    {
      "mesh": 0,
      "name": "defaultMaterial"
    },
    {
      "children": [
        5
      ],
      "name": "polySurface53"
    },
    {
      "mesh": 1,
      "name": "defaultMaterial"
    },
    {
      "children": [
        7
      ],
      "name": "polySurface52"
    },
    {
      "mesh": 2,
      "name": "defaultMaterial"
    }
  ],
  "samplers": [
    {
      "magFilter": 9729,
      "minFilter": 9987,
      "wrapS": 10497,
      "wrapT": 10497
    }
  ],
  "scene": 0,
  "scenes": [
    {
      "name": "Sketchfab_Scene",
      "nodes": [
        0
      ]
    }
  ],
  "textures": [
    {
      "sampler": 0,
      "source": 0
    },
    {
      "sampler": 0,
      "source": 1
    },
    {
      "sampler": 0,
      "source": 2
    }
  ]
}
