{
  "accessors": [
    {
      "bufferView": 2,
      "componentType": 5126,
      "count": 768,
      "max": [
        0.22750000655651093,
        0.22750000655651093,
        1.597000002861023
      ],
      "min": [
        -0.22750000655651093,
        -0.22750000655651093,
        0.4020000100135803
      ],
      "type": "VEC3"
    },
    {
      "bufferView": 2,
      "byteOffset": 9216,
      "componentType": 5126,
      "count": 768,
      "max": [
        0.9950447082519531,
        0.9950447082519531,
        1.0
      ],
      "min": [
        -0.9950447082519531,
        -0.9950447082519531,
        -1.0
      ],
      "type": "VEC3"
    },
    {
      "bufferView": 3,
      "componentType": 5126,
      "count": 768,
      "max": [
        1.0,
        0.9975376725196838,
        0.7041416764259338,
        1.0
      ],
      "min": [
        -0.687527596950531,
        -0.687527596950531,
        -0.7041460275650024,
        -1.0
      ],
      "type": "VEC4"
    },
    {
      "bufferView": 1,
      "componentType": 5126,
      "count": 768,
      "max": [
        0.9386410713195801,
        0.9566586017608643
      ],
      "min": [
        0.03337644785642624,
        0.6723238825798035
      ],
      "type": "VEC2"
    },
    {
      "bufferView": 0,
      "componentType": 5125,
      "count": 1872,
      "type": "SCALAR"
    },
    {
      "bufferView": 2,
      "byteOffset": 18432,
      "componentType": 5126,
      "count": 5234,
      "max": [
        0.25,
        0.25,
        1.5999999046325684
      ],
      "min": [
        -0.25,
        -0.25,
        0.0
      ],
      "type": "VEC3"
    },
    {
      "bufferView": 2,
      "byteOffset": 81240,
      "componentType": 5126,
      "count": 5234,
      "max": [
        1.0,
        1.0,
        1.0
      ],
      "min": [
        -1.0,
        -1.0,
        -1.0
      ],
      "type": "VEC3"
    },
    {
      "bufferView": 3,
      "byteOffset": 12288,
      "componentType": 5126,
      "count": 5234,
      "max": [
        1.0,
        1.0,
        0.7901812791824341,
        1.0
      ],
      "min": [
        -0.7896012663841248,
        -0.7604619264602661,
        -0.7901858687400818,
        -1.0
      ],
      "type": "VEC4"
    },
    {
      "bufferView": 1,
      "byteOffset": 6144,
      "componentType": 5126,
      "count": 5234,
      "max": [
        0.9998172521591187,
        0.6212726831436157
      ],
      "min": [
        0.00021861506684217602,
        0.00019936203898396343
      ],
      "type": "VEC2"
    },
    {
      "bufferView": 0,
      "byteOffset": 7488,
      "componentType": 5125,
      "count": 14016,
      "type": "SCALAR"
    }
  ],
  "asset": {
    "extras": {
      "author": "Nobby76 (https://sketchfab.com/nobbyt76)",
      "license": "CC-BY-4.0 (http://creativecommons.org/licenses/by/4.0/)",
      "source": "https://sketchfab.com/3d-models/metal-display-cabinet-278d34271be24efba889ea38e3bf9dd6",
      "title": "Metal Display Cabinet"
    },
    "generator": "Sketchfab-12.68.0",
    "version": "2.0"
  },
  "bufferViews": [
    {
      "buffer": 0,
      "byteLength": 63552,
      "name": "floatBufferViews",
      "target": 34963
    },
    {
      "buffer": 0,
      "byteLength": 48016,
      "byteOffset": 63552,
      "byteStride": 8,
      "name": "floatBufferViews",
      "target": 34962
    },
    {
      "buffer": 0,
      "byteLength": 144048,
      "byteOffset": 111568,
      "byteStride": 12,
      "name": "floatBufferViews",
      "target": 34962
    },
    {
      "buffer": 0,
      "byteLength": 96032,
      "byteOffset": 255616,
      "byteStride": 16,
      "name": "floatBufferViews",
      "target": 34962
    }
  ],
  "buffers": [
    {
      "byteLength": 351648,
      "uri": "scene.bin"
    }
  ],
  "images": [
    {
      "uri": "textures/material_0_baseColor.png"
    },
    {
      "uri": "textures/material_0_metallicRoughness.png"
    },
    {
      "uri": "textures/material_0_normal.png"
    }
  ],
  "materials": [
    {
      "alphaMode": "BLEND",
      "doubleSided": true,
      "name": "material_0",
      "normalTexture": {
        "index": 2
      },
      "occlusionTexture": {
        "index": 1
      },
      "pbrMetallicRoughness": {
        "baseColorTexture": {
          "index": 0
        },
        "metallicRoughnessTexture": {
          "index": 1
        }
      }
    }
  ],
  "meshes": [
    {
      "name": "Object_0",
      "primitives": [
        {
          "attributes": {
            "NORMAL": 1,
            "POSITION": 0,
            "TANGENT": 2,
            "TEXCOORD_0": 3
          },
          "indices": 4,
          "material": 0,
          "mode": 4
        }
      ]
    },
    {
      "name": "Object_1",
      "primitives": [
        {
          "attributes": {
            "NORMAL": 6,
            "POSITION": 5,
            "TANGENT": 7,
            "TEXCOORD_0": 8
          },
          "indices": 9,
          "material": 0,
          "mode": 4
        }
      ]
    }
  ],
  "nodes": [
    {
      "children": [
        1
      ],
      "matrix": [
        1.0,
        0.0,
        0.0,
        0.0,
        0.0,
        2.220446049250313e-16,
        -1.0,
        0.0,
        0.0,
        1.0,
        2.220446049250313e-16,
        0.0,
        0.0,
        0.0,
        0.0,
        1.0
      ],
      "name": "Sketchfab_model"
    },
    {
      "children": [
        2,
        3
      ],
      "name": "c139e3be396c45bfb3ddd3dc1418d983.lwo"
    },
    {
      "mesh": 0,
      "name": "Object_2"
    },
    {
      "mesh": 1,
      "name": "Object_3"
    }
  ],
  "samplers": [
    {
      "magFilter": 9729,
      "minFilter": 9987,
      "wrapS": 10497,
      "wrapT": 10497
    }
  ],
  "scene": 0,
  "scenes": [
    {
      "name": "Sketchfab_Scene",
      "nodes": [
        0
      ]
    }
  ],
  "textures": [
    {
      "sampler": 0,
      "source": 0
    },
    {
      "sampler": 0,
      "source": 1
    },
    {
      "sampler": 0,
      "source": 2
    }
  ]
}
